# xmcd
#
# Track frame offsets: 
#        150
#        19139
#        36775
#        57791
#        76863
#        91006
#        112743
#        131041
#        148484
#        169948
#        197853
#        215897
#        238770
#        254062
#        274637
#        292974
#        315447
#        332883
#
# Disc length: 4687 seconds
#
# Revision: 0
# Processed by: cddbd v1.5.2PL0 Copyright (c) Steve Scherf et al.
# Submitted via: ExactAudioCopyFreeDBPlugin 1.0
#
DISCID=0d124d12
DTITLE=Artisti vari - Dome: Twenty Years Disc 1
DYEAR=2012
DGENRE=R&B
TTITLE0=Bobby Womack -  Lulu - I’ m Back For More
TTITLE1=Richard Darbyshire - This I Swear [Knuckles and Morales Radio Mi
TTITLE1=x]
TTITLE2=Sinclair - I Want You Back
TTITLE3=Beverley Knight - Moving On Up
TTITLE4=Hil St. Soul - Until You Come Back To Me
TTITLE5=Melisa Morgan -  Mike Stevens - Tell Me (How It Feels)
TTITLE6=Dennis Taylor - Smile
TTITLE7=Beverlei Brown - Love You Yes
TTITLE8=Carleen Anderson -  Full Flava - Stories
TTITLE9=Cooly's Hot Box - Make Me Happy
TTITLE10=Angela Johnson - Rescue Me
TTITLE11=D-Influence -  Dyanna Fearon - I Wanna Know You
TTITLE12=Donna Gardier - How Sweet It Is (To Be Loved By You)
TTITLE13=Incognito - Can’t Get You Out Of My Head
TTITLE14=Seek - Talk About It
TTITLE15=Rosie Gaines - Honeychild
TTITLE16=Rahsaan Patterson - Stop Breaking My Heart
TTITLE17=Avani - Best Friend’s Lover
EXTD=
EXTT0=
EXTT1=
EXTT2=
EXTT3=
EXTT4=
EXTT5=
EXTT6=
EXTT7=
EXTT8=
EXTT9=
EXTT10=
EXTT11=
EXTT12=
EXTT13=
EXTT14=
EXTT15=
EXTT16=
EXTT17=
PLAYORDER=
